Coordinates
version=1
nRows=35
nColumns=34
inDegrees=no

Units are S.I. units (second, meters, Newtons, ...)
If the header above contains a line with 'inDegrees', this indicates whether rotational values are in degrees (yes) or radians (no).

endheader
time	pelvis_tilt	pelvis_list	pelvis_rotation	pelvis_tx	pelvis_ty	pelvis_tz	hip_flexion_r	hip_adduction_r	hip_rotation_r	knee_angle_r	ankle_angle_r	subtalar_angle_r	mtp_angle_r	hip_flexion_l	hip_adduction_l	hip_rotation_l	knee_angle_l	ankle_angle_l	subtalar_angle_l	mtp_angle_l	lumbar_extension	lumbar_bending	lumbar_rotation	arm_flex_r	arm_add_r	arm_rot_r	elbow_flex_r	pro_sup_r	arm_flex_l	arm_add_l	arm_rot_l	elbow_flex_l	pro_sup_l
1.98	-0.393834	0.0160135	0.0528922	-0.331903	0.786912	-0.572175	1.4832	-0.122651	0.178717	1.71218	0.312843	-0.42764	-0.019656	1.4784	-0.240633	0.0345601	1.61652	0.396743	-0.245116	-0.019656	-0.542719	0.0127423	0.102355	2.14288	-0.30048	0.487126	1.79124	1.84101	1.98466	-0.17675	0.575294	1.77309	2.03031
1.99	-0.389876	0.018316	0.0483544	-0.326561	0.799157	-0.572044	1.45398	-0.120279	0.177633	1.68319	0.306671	-0.425854	-0.019656	1.44546	-0.233538	0.0326273	1.58697	0.388392	-0.263177	-0.019656	-0.528719	0.0104446	0.10725	2.16377	-0.305077	0.498625	1.79351	1.82708	2.0083	-0.181954	0.573453	1.77407	2.03407
2	-0.384715	0.0199944	0.0436778	-0.32093	0.81204	-0.571916	1.42227	-0.118588	0.175446	1.65227	0.300366	-0.422377	-0.019656	1.41044	-0.22671	0.0310233	1.55568	0.379406	-0.281279	-0.019656	-0.514754	0.00893914	0.11215	2.18614	-0.309383	0.511339	1.79364	1.81485	2.03412	-0.186359	0.571702	1.77095	2.03972
2.01	-0.378527	0.0210977	0.0390361	-0.314993	0.825533	-0.571789	1.38829	-0.117755	0.17206	1.61945	0.293734	-0.41737	-0.019656	1.37346	-0.220285	0.0295445	1.52255	0.369782	-0.29921	-0.019656	-0.500608	0.00822975	0.116669	2.2097	-0.313057	0.525069	1.79145	1.80349	2.06176	-0.189953	0.570361	1.7635	2.04709
2.02	-0.371572	0.0216819	0.0345345	-0.308736	0.839615	-0.571659	1.35234	-0.117851	0.167392	1.5847	0.286534	-0.411088	-0.019656	1.33469	-0.214462	0.0279837	1.48746	0.359504	-0.316836	-0.019656	-0.485987	0.00828477	0.120523	2.23409	-0.315938	0.53969	1.78679	1.79241	2.0907	-0.192873	0.569824	1.75177	2.05551
2.03	-0.364154	0.0217737	0.0302036	-0.302151	0.854271	-0.571515	1.31474	-0.11884	0.161356	1.54798	0.278489	-0.403833	-0.019656	1.29433	-0.209504	0.0261624	1.45024	0.348525	-0.33407	-0.019656	-0.470573	0.00908136	0.123614	2.25898	-0.318119	0.555191	1.77963	1.7814	2.12034	-0.195386	0.570545	1.73616	2.06373
2.04	-0.356559	0.0213605	0.0259975	-0.295229	0.8695	-0.57134	1.2758	-0.120591	0.153879	1.50919	0.269284	-0.395883	-0.019656	1.2525	-0.205718	0.023925	1.41067	0.336762	-0.350816	-0.019656	-0.45409	0.0106151	0.126051	2.28405	-0.319992	0.571693	1.77007	1.77041	2.15	-0.197884	0.573039	1.71741	2.0701
2.05	-0.348988	0.0204065	0.0218049	-0.287963	0.88533	-0.571124	1.23566	-0.122906	0.14492	1.46814	0.258572	-0.387413	-0.019656	1.2092	-0.203423	0.0210974	1.36841	0.324061	-0.366893	-0.019656	-0.436368	0.0128867	0.128124	2.30897	-0.322259	0.589437	1.7585	1.75928	2.17897	-0.200892	0.577864	1.6967	2.07305
2.06	-0.341502	0.018884	0.0174729	-0.280341	0.901825	-0.570856	1.19429	-0.125578	0.134499	1.42459	0.245953	-0.378397	-0.019656	1.16423	-0.202877	0.0174198	1.323	0.310165	-0.381954	-0.019656	-0.417391	0.015879	0.130242	2.3333	-0.325902	0.608734	1.74559	1.74753	2.20654	-0.205065	0.585601	1.67556	2.07129
2.07	-0.333983	0.0168073	0.0128314	-0.272346	0.91908	-0.570533	1.15138	-0.128436	0.122704	1.3781	0.230955	-0.368523	-0.019656	1.11705	-0.204213	0.0124698	1.27374	0.294641	-0.395396	-0.019656	-0.397327	0.0195334	0.132861	2.35655	-0.332116	0.629902	1.73234	1.73456	2.23198	-0.211184	0.596821	1.65587	2.064
2.08	-0.326122	0.0142593	0.00771605	-0.26396	0.937209	-0.570159	1.10633	-0.131386	0.109676	1.32808	0.212979	-0.357112	-0.019656	1.06685	-0.207378	0.00559116	1.21972	0.276796	-0.406273	-0.019656	-0.376523	0.023728	0.136409	2.37809	-0.342218	0.653217	1.72002	1.71995	2.25457	-0.220137	0.612076	1.63972	2.05096
2.09	-0.31746	0.0114072	0.00199573	-0.25516	0.956343	-0.569746	1.05829	-0.134435	0.0955711	1.27367	0.191247	-0.343079	-0.019656	1.01257	-0.212079	-0.00414766	1.15979	0.255586	-0.413254	-0.019656	-0.35546	0.0282636	0.141214	2.39731	-0.357529	0.678916	1.71003	1.7038	2.27362	-0.232874	0.631891	1.62925	2.03249
2.1	-0.307456	0.00849765	-0.00439262	-0.245921	0.976614	-0.569306	1.00622	-0.137692	0.0804837	1.21379	0.164756	-0.324946	-0.019656	0.953066	-0.217767	-0.0179451	1.09266	0.229549	-0.414631	-0.019656	-0.334671	0.0328672	0.147447	2.4137	-0.379282	0.707287	1.70374	1.68689	2.28852	-0.250327	0.656739	1.62641	2.00961
2.11	-0.295589	0.00582825	-0.011411	-0.236222	0.998126	-0.568852	0.94908	-0.141346	0.0643537	1.1472	0.132271	-0.300933	-0.019656	0.887322	-0.223646	-0.0371912	1.01706	0.196827	-0.408408	-0.019656	-0.314633	0.037219	0.155098	2.42712	-0.408527	0.738873	1.70233	1.67057	2.2987	-0.273291	0.686995	1.63269	1.98402
2.12	-0.28148	0.00369826	-0.0189011	-0.226054	1.02093	-0.568389	0.885955	-0.145601	0.0468633	1.07258	0.0923814	-0.269153	-0.019656	0.814712	-0.228759	-0.0633255	0.931968	0.155292	-0.39248	-0.019656	-0.295659	0.0409999	0.164012	2.43815	-0.446042	0.774799	1.7067	1.65641	2.30368	-0.302289	0.722888	1.6489	1.95779
2.13	-0.264996	0.00234971	-0.0265869	-0.215431	1.04502	-0.567899	0.816336	-0.150587	0.0273563	0.98881	0.043654	-0.227908	-0.019656	0.735275	-0.232122	-0.0976387	0.836977	0.102821	-0.36493	-0.019656	-0.277809	0.0439479	0.173966	2.44843	-0.492239	0.817146	1.71746	1.64554	2.30301	-0.337434	0.764445	1.67509	1.93274
2.14	-0.24635	0.00191145	-0.0341017	-0.204412	1.07028	-0.567343	0.740325	-0.156273	0.00480439	0.895251	-0.0151	-0.176044	-0.019656	0.64994	-0.232911	-0.141037	0.732615	0.0377132	-0.324436	-0.019656	-0.260836	0.0459091	0.184777	2.46094	-0.547038	0.869258	1.73486	1.63838	2.29624	-0.378334	0.811418	1.71045	1.91012
2.15	-0.22613	0.00235811	-0.0410311	-0.193105	1.09649	-0.56666	0.658827	-0.162403	-0.0221548	0.792099	-0.0844443	-0.113334	-0.019656	0.560643	-0.230652	-0.193789	0.620679	-0.0408098	-0.270757	-0.019656	-0.2442	0.0468767	0.196387	2.48011	-0.609733	0.93583	1.75887	1.63453	2.28284	-0.424067	0.863181	1.75344	1.89056
2.16	-0.205272	0.00349154	-0.0469587	-0.181658	1.12336	-0.565792	0.573648	-0.168486	-0.0550931	0.680726	-0.163877	-0.040789	-0.019656	0.470286	-0.225368	-0.25529	0.504423	-0.132097	-0.205211	-0.019656	-0.227157	0.0470113	0.208903	2.51171	-0.678842	1.02269	1.78914	1.63303	2.26215	-0.473252	0.918636	1.80186	1.87417
2.17	-0.184946	0.00494831	-0.0515057	-0.170256	1.15052	-0.564695	0.487429	-0.173853	-0.0955666	0.563924	-0.251446	0.039152	-0.019656	0.382481	-0.217657	-0.323871	0.38851	-0.233708	-0.131008	-0.019656	-0.20893	0.046639	0.222548	2.56231	-0.752015	1.13621	1.82503	1.63271	2.23336	-0.524203	0.97612	1.85308	1.8609
2.18	-0.166375	0.00623528	-0.0543602	-0.15911	1.17759	-0.563383	0.403419	-0.177758	-0.14478	0.44592	-0.343578	0.122616	-0.019656	0.301098	-0.208638	-0.39675	0.278631	-0.341348	-0.0532548	-0.019656	-0.188922	0.0462223	0.237544	2.63839	-0.826041	1.28227	1.86558	1.63249	2.1955	-0.575177	1.03334	1.90427	1.85085
2.19	-0.150633	0.00680053	-0.0552977	-0.148426	1.20414	-0.561934	0.325077	-0.179509	-0.203148	0.3321	-0.435293	0.204537	-0.019656	0.229668	-0.199779	-0.470178	0.180773	-0.449249	0.0215048	-0.019656	-0.166921	0.0462958	0.253915	2.74512	-0.897011	1.46502	1.90954	1.63179	2.14746	-0.624657	1.08736	1.95271	1.84463
2.2	-0.138459	0.00614777	-0.0542008	-0.138388	1.22979	-0.560475	0.255578	-0.178625	-0.269819	0.228368	-0.520893	0.279198	-0.019656	0.170778	-0.192582	-0.539826	0.100201	-0.551061	0.0862573	-0.019656	-0.143229	0.04735	0.271276	2.88494	-0.960674	1.68547	1.95526	1.63066	2.08808	-0.671634	1.13471	1.9961	1.84315
2.21	-0.130131	0.00398249	-0.0510801	-0.129166	1.2543	-0.559128	0.197305	-0.174973	-0.34228	0.140224	-0.595071	0.341053	-0.019656	0.125609	-0.188186	-0.601365	0.0404087	-0.641133	0.134844	-0.019656	-0.118685	0.0496715	0.288682	3.05635	-1.01299	1.94033	2.00074	1.62975	2.01626	-0.715785	1.17162	2.03285	1.84697
2.22	-0.125395	0.00034491	-0.04609	-0.120947	1.27763	-0.557949	0.151412	-0.168877	-0.416211	0.0717361	-0.654156	0.385666	-0.019656	0.0937747	-0.187036	-0.65106	0.00243029	-0.715767	0.163314	-0.019656	-0.0946122	0.0531826	0.304628	3.25337	-1.05078	2.22171	2.04364	1.63016	1.93107	-0.757441	1.19436	2.06217	1.85591
2.23	-0.123446	-0.00432578	-0.0395197	-0.113864	1.29994	-0.556933	0.117588	-0.16111	-0.485722	0.0247421	-0.696986	0.410536	-0.019656	0.073601	-0.18882	-0.686293	-0.0149499	-0.773828	0.170981	-0.019656	-0.0727126	0.0573404	0.317284	3.46619	-1.07243	2.51796	2.08144	1.63322	1.83191	-0.797271	1.19959	2.08399	1.86901
2.24	-0.123068	-0.00927981	-0.0317693	-0.107984	1.32139	-0.555997	0.0942007	-0.152742	-0.544077	-0.00139209	-0.724966	0.415659	-0.019656	0.0626159	-0.19265	-0.705884	-0.0145916	-0.816403	0.160955	-0.019656	-0.0548257	0.0612112	0.324984	3.68342	-1.0782	2.81612	2.11178	1.64002	1.71854	-0.835668	1.18465	2.09862	1.88494
2.25	-0.122877	-0.0137048	-0.0232989	-0.103303	1.34208	-0.55502	0.0788081	-0.144859	-0.584788	-0.0092927	-0.741221	0.403628	-0.019656	0.0580601	-0.197392	-0.709958	-0.000365603	-0.84577	0.139591	-0.019656	-0.0425793	0.0637556	0.326592	3.89437	-1.07014	3.10432	2.13268	1.65123	1.59133	-0.872344	1.14793	2.10648	1.9024
2.26	-0.121659	-0.0169789	-0.0145739	-0.0997431	1.36207	-0.553886	0.0687843	-0.138265	-0.603042	-0.00285222	-0.749377	0.379276	-0.019656	0.0573302	-0.201959	-0.69968	0.0233299	-0.864346	0.114979	-0.019656	-0.0370017	0.0641418	0.32168	4.09064	-1.05151	3.37355	2.14277	1.66714	1.45147	-0.906223	1.08935	2.10797	1.92034
2.27	-0.118637	-0.0187952	-0.00601172	-0.0971565	1.38135	-0.552511	0.0618271	-0.133319	-0.597039	0.0134827	-0.752507	0.348813	-0.019656	0.0582646	-0.205465	-0.677075	0.0519062	-0.874102	0.0949849	-0.019656	-0.0382545	0.0619204	0.310521	4.26694	-1.02601	3.61834	2.14137	1.68765	1.3013	-0.935624	1.01056	2.10342	1.93819
2.28	-0.113589	-0.019131	0.00207965	-0.0953438	1.39985	-0.550863	0.056233	-0.129978	-0.5687	0.0353304	-0.752555	0.318624	-0.019656	0.0592704	-0.207251	-0.644968	0.0809177	-0.876498	0.0854436	-0.019656	-0.0456032	0.0570144	0.293965	4.4211	-0.997124	3.83676	2.12864	1.71227	1.14435	-0.958609	0.915048	2.09317	1.95577
2.29	-0.106773	-0.0181498	0.00955201	-0.0940952	1.4175	-0.548961	0.0509378	-0.127965	-0.523438	0.0588892	-0.750233	0.294053	-0.019656	0.059337	-0.206924	-0.60693	0.106555	-0.872607	0.0890587	-0.019656	-0.0576571	0.0496451	0.273221	4.55348	-0.967535	4.02963	2.10551	1.74007	0.985232	-0.973392	0.807789	2.07764	1.97312
2.3	-0.0987593	-0.016119	0.0164229	-0.0932245	1.43421	-0.546871	0.0454024	-0.126925	-0.468903	0.0812071	-0.745284	0.278461	-0.019656	0.0579823	-0.204379	-0.567023	0.126076	-0.863284	0.105197	-0.019656	-0.0727141	0.0402877	0.249639	4.66599	-0.938895	4.19945	2.07364	1.7697	0.828986	-0.978699	0.694629	2.05743	1.99033
2.31	-0.09024	-0.0133316	0.0228587	-0.0925841	1.44993	-0.544682	0.0394252	-0.126537	-0.413293	0.100242	-0.736941	0.272839	-0.019656	0.0551572	-0.199789	-0.529382	0.138052	-0.849371	0.130543	-0.019656	-0.0891031	0.029583	0.224501	4.7612	-0.911858	4.34943	2.03514	1.79979	0.680476	-0.974004	0.581505	2.03337	2.00746
2.32	-0.0818641	-0.0100565	0.0291216	-0.0920638	1.4646	-0.542485	0.0329813	-0.126572	-0.363798	0.114808	-0.724428	0.276037	-0.019656	0.051128	-0.193559	-0.497819	0.142358	-0.831906	0.160281	-0.019656	-0.105433	0.0182346	0.198872	4.84175	-0.886344	4.48277	1.99238	1.82934	0.543736	-0.959624	0.473718	2.00651	2.02445
